<svg width="27" height="18" viewBox="0 0 27 18" fill="none" xmlns="http://www.w3.org/2000/svg">
<path d="M8.48618 0C8.01641 -2.56144e-06 7.55215 0.101128 7.12494 0.29652C6.69773 0.491912 6.31759 0.776985 6.01036 1.13236L0.610363 7.38C0.230727 7.812 0 8.37818 0 9V13.9091C0 14.9941 0.431005 16.0346 1.1982 16.8018C1.96539 17.569 3.00593 18 4.09091 18H7.36364C8.44861 18 9.48915 17.569 10.2563 16.8018C11.0235 16.0346 11.4545 14.9941 11.4545 13.9091V11.4545H14.7273V13.9091C14.7273 14.9941 15.1583 16.0346 15.9255 16.8018C16.6927 17.569 17.7332 18 18.8182 18H22.0909C23.1759 18 24.2164 17.569 24.9836 16.8018C25.7508 16.0346 26.1818 14.9941 26.1818 13.9091V9C26.1818 8.298 25.8873 7.66636 25.416 7.21964L20.1715 1.13564C19.8643 0.779451 19.4841 0.49364 19.0566 0.297668C18.629 0.101696 18.1643 0.00016835 17.694 0H16.3636C16.1466 0 15.9385 0.0862012 15.7851 0.23964C15.6317 0.393079 15.5455 0.601187 15.5455 0.818182C15.5455 1.03518 15.6317 1.24328 15.7851 1.39672C15.9385 1.55016 16.1466 1.63636 16.3636 1.63636H17.694C17.9291 1.63645 18.1615 1.68721 18.3753 1.7852C18.589 1.88318 18.7792 2.02609 18.9327 2.20418L22.6751 6.54545H17.1818C16.5308 6.54545 15.9065 6.80406 15.4462 7.26437C14.9859 7.72469 14.7273 8.34901 14.7273 9V9.81818H11.4545V9C11.4545 8.34901 11.1959 7.72469 10.7356 7.26437C10.2753 6.80406 9.65099 6.54545 9 6.54545H3.49527L7.24909 2.20255C7.40262 2.02496 7.59255 1.88249 7.80601 1.78479C8.01946 1.6871 8.25143 1.63648 8.48618 1.63636H9.81818C10.0352 1.63636 10.2433 1.55016 10.3967 1.39672C10.5502 1.24328 10.6364 1.03518 10.6364 0.818182C10.6364 0.601187 10.5502 0.393079 10.3967 0.23964C10.2433 0.0862012 10.0352 0 9.81818 0H8.48618Z" fill="#6197FF"/>
</svg>
